<?xml version="1.0" encoding="UTF-8" standalone="no"?>
<!-- Created with Inkscape (http://www.inkscape.org/) -->

<svg
   xmlns:dc="http://purl.org/dc/elements/1.1/"
   xmlns:cc="http://creativecommons.org/ns#"
   xmlns:rdf="http://www.w3.org/1999/02/22-rdf-syntax-ns#"
   xmlns:svg="http://www.w3.org/2000/svg"
   xmlns="http://www.w3.org/2000/svg"
   xmlns:sodipodi="http://sodipodi.sourceforge.net/DTD/sodipodi-0.dtd"
   xmlns:inkscape="http://www.inkscape.org/namespaces/inkscape"
   version="1.1"
   id="svg1286"
   width="1000"
   height="820"
   viewBox="0 0 1000 820"
   sodipodi:docname="manOnTable.svg"
   inkscape:version="0.92.4 (5da689c313, 2019-01-14)">
  <metadata
     id="metadata1292">
    <rdf:RDF>
      <cc:Work
         rdf:about="">
        <dc:format>image/svg+xml</dc:format>
        <dc:type
           rdf:resource="http://purl.org/dc/dcmitype/StillImage" />
        <dc:title></dc:title>
      </cc:Work>
    </rdf:RDF>
  </metadata>
  <defs
     id="defs1290" />
  <sodipodi:namedview
     pagecolor="#ffffff"
     bordercolor="#666666"
     borderopacity="1"
     objecttolerance="10"
     gridtolerance="10"
     guidetolerance="10"
     inkscape:pageopacity="0"
     inkscape:pageshadow="2"
     inkscape:window-width="1920"
     inkscape:window-height="1017"
     id="namedview1288"
     showgrid="false"
     inkscape:zoom="0.56954676"
     inkscape:cx="-113.52898"
     inkscape:cy="409.79897"
     inkscape:window-x="-8"
     inkscape:window-y="-8"
     inkscape:window-maximized="1"
     inkscape:current-layer="svg1286" />
  <g
     id="g1296"
     transform="matrix(3.577502,0,0,3.4477236,35.506632,-26.559066)"
     style="stroke-width:0.28473696">
    <path
       style="fill:#e1defd;stroke-width:0.28473696"
       d="m 80.591115,237.14743 c -1.118204,-1.8093 0.610774,-4.26069 2.786163,-3.9503 2.909756,0.41516 2.882769,4.19456 -0.03292,4.61006 -1.185602,0.16895 -2.424562,-0.12794 -2.753245,-0.65976 z m 99.461555,-6.7577 C 164.95708,227.0897 147.53365,215.08403 140.5,203.13584 c -2.96858,-5.04278 -3.05236,-5.09633 -8,-5.11362 l -5,-0.0175 -2.88996,5.53079 c -9.81815,18.78995 -35.082919,26.63561 -55.124073,17.11811 -8.94413,-4.24755 -14.536722,-9.19748 -19.004575,-16.82071 -6.866579,-11.71603 -8.168237,-23.83368 -3.97431,-36.9984 1.681424,-5.27798 1.691365,-5.77895 0.145353,-7.32496 -6.00322,-6.00322 -13.571487,-20.97345 -16.688143,-33.00958 -1.874432,-7.23882 -2.303103,-11.34824 -2.190598,-21 0.07696,-6.601917 0.766063,-14.353494 1.531895,-17.231843 1.634144,-6.141864 1.946025,-5.720524 -8.921006,-12.051938 C 11.764983,71.194218 7.8228762,66.880026 3.3773023,57.603671 -1.727496,46.951745 -1.1635268,45.961861 6.3692749,52.352136 c 3.5031012,2.971773 9.5915051,7.317515 13.5297851,9.657205 4.173914,2.479677 8.295093,5.858532 9.880725,8.100969 1.496118,2.115843 3.02155,3.856595 3.389848,3.868339 0.368299,0.01174 1.437256,-2.289744 2.375461,-5.114415 1.876759,-5.650392 6.526251,-13.100371 9.456998,-15.153146 1.033189,-0.723673 6.067886,-5.331422 11.188216,-10.239441 C 61.310639,38.563627 65.95,34.529052 66.5,34.505924 c 0.55,-0.02313 3.7,-1.433477 7,-3.134111 21.865299,-11.268138 47.45332,-12.190251 70.42649,-2.537953 6.61044,2.777412 7.50499,2.929531 9.50833,1.616891 9.60953,-6.296405 32.24855,-9.265694 45.98281,-6.031015 12.45096,2.932439 30.57653,13.274837 32.24561,18.399251 0.30114,0.924557 1.63861,4.084338 2.97215,7.021736 3.42453,7.543178 4.71075,14.549575 4.02302,21.914348 l -0.59334,6.353952 5.3525,5.438708 c 6.60887,6.715301 12.73691,18.243379 15.62934,29.401909 1.86722,7.20343 2.10615,10.24015 1.68933,21.47024 -0.26702,7.19407 -1.05831,14.65512 -1.75842,16.58012 -0.70011,1.925 -2.02746,5.525 -2.94967,8 l -1.67673,4.5 -61.42571,0.51154 -61.42571,0.51155 61.33156,0.23845 61.33156,0.23846 -2.2364,3.75 c -1.23002,2.0625 -3.85924,5.775 -5.84272,8.25 l -3.60633,4.5 2.26877,4.5 c 1.82909,3.62791 2.20424,5.78181 1.93579,11.11416 -0.67093,13.32742 -9.48039,22.48311 -29.18223,30.32916 -10.99003,4.37666 -25.63415,5.52888 -37.44733,2.94641 z M 188,211.5 c 0,-0.825 -0.42344,-1.5 -0.94098,-1.5 -1.26098,0 -2.1641,1.56159 -1.36517,2.36052 C 186.82004,213.4867 188,213.04641 188,211.5 Z m -4.15161,-1.38514 c 2.02414,-1.28275 0.94985,-4.5694 -1.61308,-4.935 -2.68733,-0.38334 -4.00654,2.18594 -2.22474,4.33287 1.41425,1.70408 1.96311,1.79019 3.83782,0.60213 z m 40.8259,-58.86425 -25.82572,-0.28468 0.53938,-3.23297 0.53938,-3.23296 -1.10005,3.22114 -1.10005,3.22114 -12.61361,0.31153 c -6.93749,0.17134 4.93638,0.30476 26.38638,0.2965 21.51185,-0.008 27.41938,-0.14268 13.17429,-0.2997 z M 201.85943,139 c 0,-0.94548 -0.31771,-0.76064 -0.85943,0.5 -0.47269,1.1 -0.85943,2.675 -0.85943,3.5 0,0.94548 0.31771,0.76064 0.85943,-0.5 0.47269,-1.1 0.85943,-2.675 0.85943,-3.5 z m 1.82368,-8.1875 c -0.31922,-0.79773 -0.55618,-0.56078 -0.60416,0.60417 -0.0434,1.05416 0.19292,1.64479 0.52522,1.3125 0.33229,-0.3323 0.36781,-1.1948 0.0789,-1.91667 z M 61,130 c 0,-0.55 -0.45,-1 -1,-1 -0.55,0 -1,0.45 -1,1 0,0.55 0.45,1 1,1 0.55,0 1,-0.45 1,-1 z m 145.3752,-8 c 0.43569,-2.40271 0.36027,-2.87298 -0.24054,-1.5 -0.48136,1.1 -1.1608,3.575 -1.50986,5.5 -0.43569,2.40271 -0.36027,2.87298 0.24054,1.5 0.48136,-1.1 1.1608,-3.575 1.50986,-5.5 z M 66.5,125.5 c 0,-3.07766 -4.889448,-2.78033 -5.329257,0.32407 -0.28631,2.02092 0.03979,2.2818 2.5,2 C 65.72531,127.58873 66.5,126.95237 66.5,125.5 Z m 67.06838,-9.99057 c -2.28703,-5.47366 -3.23147,-6.86358 -3.91368,-5.75973 -0.68003,1.1003 3.37335,9.2287 4.60872,9.24205 0.41988,0.005 0.10712,-1.56251 -0.69504,-3.48232 z m 74.11473,0.30307 c -0.31922,-0.79773 -0.55618,-0.56078 -0.60416,0.60417 -0.0434,1.05416 0.19292,1.64479 0.52522,1.3125 0.33229,-0.3323 0.36781,-1.1948 0.0789,-1.91667 z m 2,-7 c -0.31922,-0.79773 -0.55618,-0.56078 -0.60416,0.60417 -0.0434,1.05416 0.19292,1.64479 0.52522,1.3125 0.33229,-0.3323 0.36781,-1.1948 0.0789,-1.91667 z M 151,105 v -4 h -5.87756 c -4.00454,0 -6.27426,0.47801 -7.12244,1.5 -0.92769,1.1178 -0.94385,1.5 -0.0634,1.5 0.64981,0 0.9596,0.35899 0.68843,0.79775 -0.27117,0.43876 -0.0645,1.45126 0.45928,2.25 0.81202,1.23831 1.10425,1.19444 1.98371,-0.29775 1.45043,-2.461 5.97788,-2.2906 6.64226,0.25 0.97105,3.71328 3.28975,2.30363 3.28975,-2 z m -23.07389,-0.58903 C 127.28206,103.63494 126.05648,103 125.20259,103 c -1.27073,0 -1.20313,0.3398 0.37244,1.87212 2.1691,2.10955 4.16042,1.71897 2.35108,-0.46115 z m 82.757,0.40153 c -0.31922,-0.79773 -0.55618,-0.56078 -0.60416,0.60417 -0.0434,1.05416 0.19292,1.64479 0.52522,1.3125 0.33229,-0.3323 0.36781,-1.1948 0.0789,-1.91667 z m 1,-4 c -0.31922,-0.79773 -0.55618,-0.56078 -0.60416,0.60417 -0.0434,1.05416 0.19292,1.64479 0.52522,1.3125 0.33229,-0.3323 0.36781,-1.1948 0.0789,-1.91667 z M 133.75,229.9199 c -2.37721,-1.38459 -2.19944,-2.39409 0.65023,-3.69249 2.81458,-1.28241 3.59977,-0.75036 3.59977,2.43926 0,2.4892 -1.41273,2.90579 -4.25,1.25323 z m -99.747141,-60.91742 -2.255294,-1.95601 2.691317,-1.02323 C 38.030451,164.65773 38,164.6456 38,167.44098 c 0,3.35855 -1.32728,3.87706 -3.997141,1.5615 z M 14.499112,89.415161 C 11.351579,87.782202 10.040075,86.2714 10.015313,84.25 c -0.026264,-2.143931 2.813589,-1.375331 6.21891,1.683135 4.030731,3.620173 2.90102,5.88728 -1.735111,3.482026 z M 32.086745,35.100319 29.67349,33.24511 31.771004,32.122555 C 35.067265,30.358449 36,30.772533 36,34 c 0,3.475721 -0.602842,3.645226 -3.913255,1.100319 z M 224.33705,29.394484 c -2.94828,-1.454097 -6.29852,-6.766351 -5.05286,-8.012004 0.97425,-0.974253 7.81174,2.834294 9.37689,5.223023 1.3988,2.13483 1.15251,4.425197 -0.4701,4.371727 -0.38004,-0.01252 -2.11431,-0.724759 -3.85393,-1.582746 z"
       id="path1310"
       inkscape:connector-curvature="0" />
    <path
       style="fill:#cfc6fc;stroke-width:0.28473696"
       d="m 46.188546,193.75 c -2.513938,-9.97244 -1.941896,-21.00533 1.458858,-28.13679 l 1.672645,-3.50757 -4.378937,-5.79986 C 39.884188,149.60793 33,136.75996 33,134.02007 c 0,-1.02977 1.549443,-6.49057 3.443206,-12.13512 l 3.443205,-10.26281 -1.488959,-8.06107 C 35.203267,86.268089 32.982557,82.406607 23.34509,77.38727 12.896299,71.945382 6.6155036,64.811015 2.0782466,53.230221 L 0.01359185,47.960442 6.380409,53.230221 c 3.5017495,2.898378 9.792846,7.382434 13.980214,9.964568 5.479051,3.378647 8.444365,6.005089 10.577532,9.368744 l 2.964135,4.673956 0.70404,-2.868745 c 1.903378,-7.755681 7.508227,-17.16866 13.155385,-22.093614 3.156057,-2.752435 8.549158,-7.813448 11.984668,-11.246695 6.245574,-6.241459 6.246301,-6.241833 5.607168,-2.885352 -1.092059,5.735076 -4.517585,14.165583 -7.577112,18.647909 -1.61091,2.360045 -6.459333,6.860045 -10.774274,10 -12.291739,8.944619 -12.82311,10.89719 -8.190637,30.09724 l 2.747685,11.388228 3.860164,-7.81051 C 47.542467,96.170172 51.129144,89.9247 53.389771,86.587125 58.01397,79.759987 68.135139,69.422709 72.867539,66.693464 75.906113,64.941074 76,64.943134 76,66.762191 76,69.164133 69.669168,79.513855 64.5,85.562534 51.478966,100.79904 43,114.27558 43,119.73483 c 0,2.29671 0.448844,2.06505 6.05476,-3.12504 6.06535,-5.61545 19.029517,-12.72958 25.69524,-14.10035 3.999867,-0.82256 4.175821,-0.0396 0.426774,1.89915 -4.788678,2.47632 -17.211896,14.71559 -22.320568,21.99008 C 50.185293,130.20191 48,133.64199 48,134.04329 c 0,0.40129 1.931754,1.01931 4.292787,1.37337 2.483145,0.37237 5.417017,1.68618 6.959656,3.1166 2.618159,2.42769 2.731533,2.44202 6.207213,0.78459 C 68.758078,137.74494 69,137.31425 69,133.01496 69,123.62812 77.040961,116 86.935814,116 c 5.723663,0 9.347719,1.50785 12.987096,5.40349 2.14935,2.3007 2.6051,2.42864 4.0366,1.13315 0.88753,-0.8032 3.28472,-2.15856 5.32709,-3.01192 2.4636,-1.02936 3.7134,-2.20031 3.7134,-3.47912 0,-1.06016 0.45667,-2.2098 1.01482,-2.55476 0.61761,-0.3817 -0.152,-2.75331 -1.96619,-6.05902 -2.94852,-5.3726 -2.95686,-5.43143 -0.76483,-5.3962 7.39533,0.11887 16.53498,4.02183 16.6844,7.12485 0.0298,0.6181 7.85091,14.84687 8.66073,15.7562 0.20409,0.22916 0.62746,0.16027 0.94083,-0.1531 0.31337,-0.31337 -0.3726,-2.41694 -1.52438,-4.67461 l -2.09414,-4.10486 2.18538,-5.08005 c 1.73976,-4.04417 2.36993,-4.75028 3.09042,-3.46283 0.80202,1.43313 1.10747,1.36725 2.68325,-0.57876 2.0354,-2.51361 4.72551,-2.02122 5.87072,1.07458 1.41152,3.81571 3.80862,-0.2785 3.32968,-5.68704 -0.0709,-0.80103 -1.7482,-1.25 -4.66971,-1.25 -2.90306,0 -4.32543,-0.37794 -3.91594,-1.04052 1.46692,-2.373518 9.1154,-6.221201 14.84259,-7.466779 3.3728,-0.733536 5.35643,-1.369476 4.40805,-1.413201 -2.16257,-0.09971 -4.05077,-3.863329 -5.8094,-11.5795 -0.93608,-4.107146 -2.25063,-6.836392 -4.16688,-8.65121 -3.31341,-3.138009 -3.54258,-5.673953 -0.78067,-8.638519 1.48281,-1.59161 2.87654,-2.060419 5.25,-1.765935 1.7772,0.220504 5.15021,-0.01761 7.49558,-0.529152 11.23071,-2.449477 17.3455,7.855202 12.72938,21.451646 -0.82847,2.440198 -1.24239,5.12448 -0.91982,5.965071 0.54371,1.416887 6.42613,4.203932 6.42613,3.044651 0,-0.285675 0.70714,0.187734 1.57143,1.052019 C 184.43571,92.292857 185.74821,93 186.4881,93 c 0.73988,0 1.51478,0.508628 1.72199,1.130284 0.25545,0.766334 4.15659,1.082524 12.11537,0.98196 6.80579,-0.08599 12.58807,0.306297 13.76008,0.933538 3.02908,1.621109 5.9065,6.993228 5.91072,11.035238 0.005,4.49123 2.01734,5.60518 11.25911,6.23163 17.18494,1.16487 30.02029,15.0595 28.50256,30.85482 -0.25771,2.68208 -0.7962,5.20411 -1.19665,5.60452 -0.77281,0.77274 -57.62601,0.49661 -58.4063,-0.28367 -0.25225,-0.25226 2.56082,-11.76419 6.25127,-25.58207 3.69045,-13.81788 6.47137,-25.361967 6.17981,-25.653524 -0.79885,-0.79885 -1.7135,2.179024 -8.59935,27.997274 l -6.33424,23.75 -10.82623,0.125 c -12.51402,0.14449 -12.42128,0.13671 -13.40957,1.125 -0.64697,0.64697 16.84257,0.86012 72.37898,0.8821 13.77606,0.005 12.97836,-0.62215 9.57184,7.5308 L 253.97316,163 H 190.0456 c -41.53969,0 -64.14401,0.35021 -64.5456,1 -0.40954,0.66266 20.80328,1 62.88197,1 35.21112,0 63.74093,0.38984 64.04082,0.87507 0.57486,0.93014 -4.01149,7.83333 -8.18585,12.32104 l -2.50786,2.69611 2.2614,4.80389 c 1.24377,2.64214 2.48897,6.49139 2.76713,8.55389 l 0.50573,3.75 H 147.26163 47.259922 Z M 67,187.43426 c 0,-2.72191 -7.033941,-7.73365 -8.623371,-6.14422 -1.078133,1.07813 0.688926,4.43437 2.895373,5.49928 C 63.704608,187.96339 67,188.33443 67,187.43426 Z M 40.969591,123.55887 c -0.02428,-1.64431 -0.201284,-1.75684 -0.879037,-0.55887 -0.466746,0.825 -1.151362,2.625 -1.52137,4 -0.646406,2.40213 -0.611993,2.42401 0.879037,0.55887 0.853478,-1.06762 1.538095,-2.86762 1.52137,-4 z M 122,111.5 c 0,-0.825 -0.675,-1.5 -1.5,-1.5 -1.56157,0 -1.98397,1.1827 -0.83333,2.33333 C 120.8173,113.48397 122,113.06157 122,111.5 Z m 54.96937,-3 c 0,-0.55 -0.43621,-0.325 -0.96937,0.5 -0.53316,0.825 -0.96937,1.95 -0.96937,2.5 0,0.55 0.43621,0.325 0.96937,-0.5 0.53316,-0.825 0.96937,-1.95 0.96937,-2.5 z m 2,-5 c 0,-0.55 -0.43621,-0.325 -0.96937,0.5 -0.53316,0.825 -0.96937,1.95 -0.96937,2.5 0,0.55 0.43621,0.325 0.96937,-0.5 0.53316,-0.825 0.96937,-1.95 0.96937,-2.5 z M 219,61.588894 C 219,59.870681 224.60091,55 226.57673,55 c 2.99491,0 1.14036,4.577819 -2.64825,6.536985 C 220.37548,63.374312 219,63.388799 219,61.588894 Z M 71.626776,49.25 C 73.149651,42.951254 79.346013,38.281052 84.989939,39.178175 L 87.014584,39.5 84.988734,43.576289 C 82.867061,47.845389 77.000917,52 73.094793,52 71.27348,52 71.059025,51.598267 71.626776,49.25 Z"
       id="path1308"
       inkscape:connector-curvature="0" />
    <path
       style="fill:#f1acd2;stroke-width:0.28473696"
       d="m 91.015313,196.75 c 0.02837,-2.31618 1.462085,-3.44757 6.484687,-5.11731 8.50036,-2.82591 7.96366,-1.38973 8.31345,-22.24624 l 0.31345,-18.68987 -6.139958,5.90171 c -3.376977,3.24594 -6.970459,6.21174 -7.985516,6.59066 -1.015057,0.37892 -3.048389,2.74142 -4.518514,5.25 C 86.012786,170.94753 84.544463,173 84.219972,173 c -0.956063,0 -14.436525,-7.01932 -17.963139,-9.35346 -3.361063,-2.22457 -3.804926,-3.23407 -2.397613,-5.45299 0.669699,-1.05592 2.120899,-1.08141 7.567594,-0.13291 4.661087,0.81169 7.059351,0.85319 7.777948,0.1346 0.571422,-0.57142 1.546613,-0.85239 2.167093,-0.62437 C 81.992335,157.7989 86.55,151.14235 91.5,142.77854 101.83086,125.32292 104.78896,121.56738 109.56851,119.83907 112.08665,118.9285 113,118.00198 113,116.35813 c 0,-3.89091 2.08612,-3.76277 5.8613,0.36005 2.87546,3.14026 5.31356,4.51618 11.62351,6.55965 4.39165,1.42223 8.11072,2.45997 8.2646,2.30609 0.15388,-0.15388 -0.87462,-2.34524 -2.28557,-4.86969 l -2.56535,-4.58992 2.3967,-4.71593 c 1.39545,-2.74578 2.68518,-4.24916 3.08723,-3.59863 0.46456,0.75168 1.35969,0.44814 2.73541,-0.92758 1.97183,-1.97183 2.11577,-1.98074 4.02877,-0.2495 1.8877,1.70834 1.89587,1.83009 0.16864,2.51107 -1.56593,0.6174 -1.58612,0.72534 -0.14703,0.78597 3.07582,0.1296 4.83179,-1.12543 4.83179,-3.45337 0,-1.27032 0.5625,-2.53791 1.25,-2.81688 2.21602,-0.89917 -1.43362,-2.62757 -5.58333,-2.64415 -7.62296,-0.0305 -1.39881,-4.972071 10.13812,-8.049093 3.68236,-0.982126 5.91927,-1.826304 4.97089,-1.87595 -2.17485,-0.113852 -4.06958,-3.915806 -5.77607,-11.590267 -0.89846,-4.040565 -2.25925,-6.936825 -4.16689,-8.868657 -6.03952,-6.116137 -2.95533,-9.170165 10.23954,-10.139397 l 9.57225,-0.703132 2.61719,3.110347 c 3.57141,4.24439 4.43533,10.673628 2.30813,17.177155 -0.91203,2.788375 -1.40856,5.856451 -1.10339,6.817947 0.30517,0.961497 3.30714,3.063651 6.67106,4.671454 10.20531,4.877691 16.24678,12.644813 14.13571,18.173343 -0.36983,0.96852 -3.28259,6.18511 -6.47281,11.59242 C 186.61018,126.7388 184,131.34454 184,131.56646 184,133.0421 177.57819,142 176.52032,142 c -0.71947,0 -2.36837,2.1375 -3.66423,4.75 l -2.35609,4.75 -21.98715,0.5 -21.98715,0.5 -4.01964,15.67346 c -2.2108,8.6204 -4.35409,16.0079 -4.76285,16.41666 C 117.33444,184.99889 117,188.18333 117,191.66667 V 198 h -13 c -9.7415,0 -12.996162,-0.31332 -12.984687,-1.25 z m 87.327927,-91.75416 c 0.34874,-1.37271 -0.4582,-0.24584 -1.79321,2.50416 -1.33501,2.75 -2.42312,5.675 -2.41802,6.5 0.0105,1.70673 3.2495,-5.21858 4.21123,-9.00416 z"
       id="path1306"
       inkscape:connector-curvature="0" />
    <path
       style="fill:#5c9dec;stroke-width:0.28473696"
       d="M 91,197.08179 C 91,195.38102 92.207181,193 93.069476,193 95.69016,193 105,188.65207 105,187.42815 c 0,-0.78548 0.7875,-1.46368 1.75,-1.5071 1.04544,-0.0472 1.24674,-0.28201 0.5,-0.58333 -0.93123,-0.37576 -1.25,-4.84155 -1.25,-17.51182 v -17.00743 l -6.06681,5.84077 c -3.336746,3.21242 -6.374246,5.95147 -6.75,6.08679 -1.21159,0.43632 -7.022639,-3.57752 -8.103645,-5.5974 -0.874516,-1.63405 0.375382,-4.33418 7.546949,-16.30351 4.727275,-7.88982 9.557696,-15.40038 10.734276,-16.69013 2.86155,-3.13683 6.92349,-5.1575 10.33957,-5.14359 2.38314,0.01 18.33329,4.40356 23.42712,6.45356 1.26277,0.5082 1.77564,-0.13489 2.28873,-2.86992 0.3637,-1.93868 1.05322,-3.76712 1.53227,-4.06319 0.47905,-0.29607 3.13785,-0.0151 5.90845,0.62448 4.53265,1.04626 5.91364,2.11188 13.78122,10.63405 4.80907,5.20919 9.99914,10.2347 11.53348,11.16779 l 2.78972,1.69653 -2.23067,4.42265 L 170.5,151.5 148.51285,152 126.5257,152.5 122.51285,168 c -2.20707,8.525 -4.37691,16.0625 -4.82187,16.75 -0.44496,0.6875 -2.58246,1.25 -4.75,1.25 -2.7019,0 -3.94098,0.43797 -3.94098,1.39301 0,1.83606 2.56472,2.75434 5.57946,1.99769 C 116.8779,188.81383 117,189.01564 117,193.39159 V 198 h -13 c -7.228038,0 -13,-0.40768 -13,-0.91821 z M 76.5,169.38462 c -12.746545,-6.5601 -14.559771,-8.16538 -12.64078,-11.19107 0.669699,-1.05592 2.120899,-1.08141 7.567594,-0.13291 4.661087,0.81169 7.059351,0.85319 7.777948,0.1346 C 80.682108,156.71789 83,157.87139 83,160.08394 c 0,1.54655 1.240554,2.72214 5.790635,5.48737 0.500277,0.30403 -3.953301,7.42903 -4.639411,7.4223 C 83.793051,172.9901 80.35,171.36605 76.5,169.38462 Z m 109.03067,-46.97816 c -0.93465,-1.42645 -3.76433,-3.50698 -6.28819,-4.6234 -4.36509,-1.93089 -4.65178,-1.94379 -5.8796,-0.26465 -0.70991,0.97087 -1.4541,2.25525 -1.65374,2.85418 -0.56497,1.69491 -9.39471,-3.30279 -14.35068,-8.12259 -2.40354,-2.3375 -4.81746,-4.25 -5.36427,-4.25 -1.44254,0 -1.22208,-3.74087 0.25581,-4.34054 2.21602,-0.89917 -1.43362,-2.62757 -5.58333,-2.64415 -2.61436,-0.0104 -3.70262,-0.4128 -3.42226,-1.26531 1.14588,-3.484389 17.75403,-9.151557 20.06041,-6.845175 1.83403,1.83402 6.03071,1.231214 9.94476,-1.428451 l 3.71385,-2.523625 5.95128,3.004195 c 9.8999,4.997458 15.48729,12.462716 13.30775,17.780376 C 195.25299,112.10265 187.90675,125 187.52894,125 c -0.1644,0 -1.06363,-1.16709 -1.99827,-2.59354 z m -7.18743,-17.41062 c 0.34874,-1.37271 -0.4582,-0.24584 -1.79321,2.50416 -1.33501,2.75 -2.42312,5.675 -2.41802,6.5 0.0105,1.70673 3.2495,-5.21858 4.21123,-9.00416 z m -42.3078,7.25416 c 0.0195,-0.4125 0.63325,-1.82871 1.36392,-3.14713 1.32625,-2.39308 1.3283,-2.39182 1.21456,0.74772 -0.0647,1.78708 -0.6536,3.14583 -1.36392,3.14713 -0.6875,0.001 -1.23405,-0.33522 -1.21456,-0.74772 z M 141,108.03518 c 0,-0.53065 0.84336,-1.41617 1.87413,-1.96782 1.44443,-0.77303 2.28246,-0.55181 3.65499,0.96482 C 148.26941,108.95517 148.22671,109 144.65499,109 142.64474,109 141,108.56583 141,108.03518 Z m 32.7242,-25.981845 c -0.29677,-1.134826 0.093,-2.152955 0.95018,-2.481877 1.95604,-0.750604 1.39354,-7.071458 -0.6293,-7.071458 -0.8002,0 -1.71261,1.091637 -2.02758,2.425861 C 171.37072,77.665655 169,78.994517 169,76.61726 c 0,-0.852173 -0.72503,-3.069803 -1.61117,-4.928066 -1.58916,-3.332496 -1.66089,-3.362091 -5.25,-2.166053 -7.73452,2.577456 -8.93732,2.609531 -11.09287,0.295815 -5.06792,-5.439768 -1.56594,-8.402044 11.0263,-9.32701 l 9.57225,-0.703132 2.61719,3.110347 c 1.48021,1.759131 2.89837,4.985481 3.26446,7.426695 0.98864,6.592752 -2.40626,17.064638 -3.80196,11.727479 z"
       id="path1304"
       inkscape:connector-curvature="0" />
    <path
       style="fill:#9e63bd;stroke-width:0.28473696"
       d="M 91,197.08179 C 91,195.38102 92.207181,193 93.069476,193 95.69016,193 105,188.65207 105,187.42815 c 0,-0.78548 0.7875,-1.46368 1.75,-1.5071 1.04544,-0.0472 1.24674,-0.28201 0.5,-0.58333 -0.93123,-0.37576 -1.25,-4.84155 -1.25,-17.51182 v -17.00743 l -6.06681,5.84077 c -3.336746,3.21242 -6.374246,5.95147 -6.75,6.08679 -1.21159,0.43632 -7.022639,-3.57752 -8.103645,-5.5974 -0.874516,-1.63405 0.375382,-4.33418 7.546949,-16.30351 9.262016,-15.4583 11.405256,-18.27122 15.573846,-20.44013 3.92596,-2.04268 7.1187,-1.74614 18.29966,1.69967 5.5,1.69502 10.79419,3.31912 11.76486,3.60911 1.31853,0.39392 1.60636,0.11421 1.13813,-1.10599 -0.34471,-0.89829 -0.0713,-2.30252 0.60758,-3.12051 0.67888,-0.818 0.84172,-1.5189 0.36187,-1.55756 -0.47984,-0.0387 0.0276,-0.43212 1.12756,-0.87436 1.1,-0.44225 2.75792,-0.41062 3.68426,0.0703 0.92634,0.4809 2.65406,0.87437 3.83938,0.87437 1.34034,0 4.10617,2.12801 7.31574,5.62869 6.88872,7.51353 14.38285,14.63336 16.74336,15.9071 1.8748,1.01166 1.86707,1.13985 -0.3316,5.5 L 170.5,151.5 148.51285,152 126.5257,152.5 122.51285,168 c -2.20707,8.525 -4.37691,16.0625 -4.82187,16.75 -0.44496,0.6875 -2.58246,1.25 -4.75,1.25 -2.7019,0 -3.94098,0.43797 -3.94098,1.39301 0,1.83606 2.56472,2.75434 5.57946,1.99769 C 116.8779,188.81383 117,189.01564 117,193.39159 V 198 h -13 c -7.228038,0 -13,-0.40768 -13,-0.91821 z M 76.5,169.38462 c -12.746545,-6.5601 -14.559771,-8.16538 -12.64078,-11.19107 0.669699,-1.05592 2.120899,-1.08141 7.567594,-0.13291 4.661087,0.81169 7.059351,0.85319 7.777948,0.1346 C 80.682108,156.71789 83,157.87139 83,160.08394 c 0,1.54655 1.240554,2.72214 5.790635,5.48737 0.500277,0.30403 -3.953301,7.42903 -4.639411,7.4223 C 83.793051,172.9901 80.35,171.36605 76.5,169.38462 Z M 184.62563,121.36558 C 182.80926,118.87359 177.48954,116 174.69263,116 c -0.75438,0 -1.89104,1.14004 -2.52591,2.53343 l -1.15431,2.53343 -4.2562,-2.28343 c -2.34092,-1.25589 -6.05621,-4.07255 -8.25621,-6.25926 -2.2,-2.18671 -4.45,-3.99272 -5,-4.01336 -0.55,-0.0206 -0.97163,-1.38152 -0.93695,-3.02417 0.0799,-3.78387 -1.38782,-5.25204 -5.6674,-5.669189 L 143.5,99.48646 147,97.230981 c 5.86718,-3.780942 15.27465,-5.809904 17.0454,-3.676278 1.19489,1.439753 3.50007,1.483133 5.7046,0.10735 0.6875,-0.429048 1.25689,-0.416029 1.26531,0.02893 0.008,0.444959 0.44201,0.134017 0.96353,-0.690983 0.52152,-0.825 1.30212,-1.538865 1.73469,-1.586367 0.43256,-0.0475 1.53034,-0.416404 2.43952,-0.819784 1.81227,-0.804063 8.27718,2.082783 13.598,6.072065 3.61556,2.710763 6.24895,7.098226 6.24895,10.411316 0,2.29142 -7.65174,16.94534 -8.82005,16.89135 -0.37397,-0.0173 -1.52342,-1.18864 -2.55432,-2.603 z M 177.45934,109 c 0.96806,-2.475 1.98388,-5.0625 2.25737,-5.75 0.2735,-0.6875 0.0591,-1.25 -0.4764,-1.25 -1.0853,0 -5.24031,9.38258 -5.24031,11.83335 0,2.3334 1.44688,0.31185 3.45934,-4.83335 z m -40.30145,2 c 0,-1.375 0.22698,-1.9375 0.50439,-1.25 0.27741,0.6875 0.27741,1.8125 0,2.5 -0.27741,0.6875 -0.50439,0.125 -0.50439,-1.25 z M 173.7242,82.053335 c -0.29677,-1.134826 0.093,-2.152955 0.95018,-2.481877 1.95604,-0.750604 1.39354,-7.071458 -0.6293,-7.071458 -0.8002,0 -1.71261,1.091637 -2.02758,2.425861 C 171.37072,77.665655 169,78.994517 169,76.61726 c 0,-0.852173 -0.72503,-3.069803 -1.61117,-4.928066 -1.58916,-3.332496 -1.66089,-3.362091 -5.25,-2.166053 -7.73452,2.577456 -8.93732,2.609531 -11.09287,0.295815 -5.06792,-5.439768 -1.56594,-8.402044 11.0263,-9.32701 l 9.57225,-0.703132 2.61719,3.110347 c 1.48021,1.759131 2.89837,4.985481 3.26446,7.426695 0.98864,6.592752 -2.40626,17.064638 -3.80196,11.727479 z"
       id="path1302"
       inkscape:connector-curvature="0" />
    <path
       style="fill:#2376f7;stroke-width:0.28473696"
       d="m 92.180449,195.84018 c 0.240502,-1.62554 1.680112,-2.61806 5.819551,-4.01221 3.025,-1.01881 5.99961,-2.52189 6.61024,-3.34018 1.42538,-1.91009 3.29265,-1.90443 4.02813,0.0122 0.37526,0.97789 1.93066,1.5 4.46862,1.5 3.87518,0 3.89301,0.0183 3.89301,4 v 4 h -12.56955 c -12.31156,0 -12.562993,-0.0443 -12.250001,-2.15982 z M 108.25,185.33772 C 107.31914,184.96211 107,180.51433 107,167.91667 107,158.6125 106.6051,151 106.12244,151 c -0.48265,0 -1.44925,0.68886 -2.148,1.5308 -0.69875,0.84194 -3.46399,3.36733 -6.144981,5.61198 -4.509688,3.77573 -5.087376,3.99303 -7.718308,2.90326 -1.564077,-0.64786 -3.412335,-2.24029 -4.107239,-3.53873 -1.136226,-2.12306 -0.780765,-3.19898 3.529781,-10.68405 9.961596,-17.29788 15.046877,-24.39634 18.729117,-26.14368 4.6832,-2.22233 4.69851,-2.22078 18.02919,1.82042 12.1601,3.68634 14.18423,4.07957 13.25431,2.57494 -0.31444,-0.50879 -0.0299,-2.11418 0.63227,-3.56753 1.1385,-2.49874 1.47546,-2.60513 6.19504,-1.95602 4.44831,0.61179 5.53867,1.29878 10.027,6.31753 7.75182,8.66789 14.95867,15.80261 16.43049,16.26604 1.07429,0.33825 1.00656,1.23028 -0.35103,4.62322 l -1.68215,4.2041 -22.14896,0.26886 L 126.5,151.5 122.13087,168 c -2.40303,9.075 -4.87803,16.83061 -5.5,17.23469 -1.26044,0.81886 -6.44877,0.88265 -8.38087,0.10303 z M 73.505222,167.36318 c -4.397128,-2.43329 -8.612874,-5.04226 -9.368324,-5.79771 -3.20943,-3.20943 2.019659,-4.52482 10.328889,-2.59826 2.596774,0.60209 4.393984,0.56413 5.206196,-0.10994 1.580486,-1.31169 3.408499,-0.23058 2.705919,1.60032 -0.314935,0.8207 0.627907,2.12184 2.293674,3.16531 1.555633,0.97448 2.974105,1.86616 3.15216,1.98151 1.025991,0.66468 -3.152584,6.37848 -4.599416,6.28926 -0.948376,-0.0585 -5.32197,-2.0972 -9.719098,-4.53049 z m 110.973398,-46.3855 c -3.15757,-3.29579 -10.58167,-6.16853 -11.19401,-4.33151 -0.19621,0.58862 -0.90301,1.80483 -1.57067,2.70271 -1.09086,1.46698 -1.84075,1.23481 -7.39615,-2.28991 -3.40022,-2.15733 -6.93947,-5.07814 -7.86501,-6.49069 C 155.52724,109.15572 154.09427,108 153.26841,108 c -1.08883,0 -1.36094,-0.73565 -0.98994,-2.67638 C 152.92999,101.9154 151.0353,100 147.01241,100 c -5.69217,0 0.0764,-4.147231 9.0706,-6.521212 3.78917,-1.000132 5.06207,-0.958661 7.34868,0.239415 3.20601,1.679796 6.64557,1.075031 10.82935,-1.904082 2.83682,-2.019992 2.94853,-2.023365 6.96893,-0.210421 C 190.30408,95.695557 196,101.66277 196,107.07723 196,108.83677 188.48866,124 187.61705,124 c -0.13358,0 -1.54587,-1.36004 -3.13843,-3.02232 z M 177.45934,109 c 0.96806,-2.475 1.98388,-5.0625 2.25737,-5.75 0.2735,-0.6875 0.0591,-1.25 -0.4764,-1.25 -1.0853,0 -5.24031,9.38258 -5.24031,11.83335 0,2.3334 1.44688,0.31185 3.45934,-4.83335 z m -40.30145,2 c 0,-1.375 0.22698,-1.9375 0.50439,-1.25 0.27741,0.6875 0.27741,1.8125 0,2.5 -0.27741,0.6875 -0.50439,0.125 -0.50439,-1.25 z m 36.90572,-29 c 0,-0.825 0.66069,-2.373508 1.46819,-3.44113 1.10901,-1.466237 1.4682,-1.574158 1.4682,-0.441129 0,0.825 -0.66069,2.373508 -1.4682,3.441129 -1.109,1.466238 -1.46819,1.574159 -1.46819,0.44113 z m -5.37652,-7.75 c -1.0019,-4.894655 -2.84801,-6.519514 -6.03191,-5.308998 C 161.12322,69.523451 158.8116,70 157.51823,70 c -1.29336,0 -2.50391,0.457026 -2.6901,1.015612 -0.19938,0.598125 -1.26131,0.369281 -2.58333,-0.556704 -2.4892,-1.743499 -3.07359,-6.560446 -0.9948,-8.19975 1.77866,-1.402621 17.3036,-2.379377 20.21643,-1.271922 C 174.57355,62.168563 177,66.840399 177,71.64147 c 0,3.440934 -0.11156,3.588217 -1.39179,1.837406 -1.18252,-1.61719 -1.6336,-1.702697 -3,-0.568684 C 171.7237,73.644275 171,74.864789 171,75.622445 171,78.098182 169.26392,77.06802 168.68709,74.25 Z"
       id="path1300"
       inkscape:connector-curvature="0" />
    <path
       style="fill:#53119d;stroke-width:0.28473696"
       d="m 92.180449,195.84018 c 0.240502,-1.62554 1.680112,-2.61806 5.819551,-4.01221 3.025,-1.01881 5.99961,-2.52189 6.61024,-3.34018 1.42538,-1.91009 3.29265,-1.90443 4.02813,0.0122 0.37526,0.97789 1.93066,1.5 4.46862,1.5 3.87518,0 3.89301,0.0183 3.89301,4 v 4 h -12.56955 c -12.31156,0 -12.562993,-0.0443 -12.250001,-2.15982 z M 108.25,185.33772 C 107.31914,184.96211 107,180.51433 107,167.91667 107,158.6125 106.6051,151 106.12244,151 c -0.48265,0 -1.44925,0.68886 -2.148,1.5308 -0.69875,0.84194 -3.46399,3.36733 -6.144981,5.61198 -4.509688,3.77573 -5.087376,3.99303 -7.718308,2.90326 -1.564077,-0.64786 -3.412335,-2.24029 -4.107239,-3.53873 -1.136226,-2.12306 -0.780765,-3.19898 3.529781,-10.68405 9.961596,-17.29788 15.046877,-24.39634 18.729117,-26.14368 1.9467,-0.92377 4.14644,-1.68025 4.88832,-1.68108 0.74188,-8.2e-4 12.14887,3.19658 25.34887,7.10533 22.81974,6.75734 24.22351,7.31549 28.54502,11.34984 2.49977,2.33366 5.12377,4.43593 5.83112,4.67171 1.01118,0.33706 0.92652,1.32736 -0.39606,4.6328 l -1.68215,4.2041 -22.14896,0.26886 L 126.5,151.5 122.13087,168 c -2.40303,9.075 -4.87803,16.83061 -5.5,17.23469 -1.26044,0.81886 -6.44877,0.88265 -8.38087,0.10303 z M 73.505222,167.36318 c -4.397128,-2.43329 -8.612874,-5.04226 -9.368324,-5.79771 -3.20943,-3.20943 2.019659,-4.52482 10.328889,-2.59826 2.596774,0.60209 4.393984,0.56413 5.206196,-0.10994 1.580486,-1.31169 3.408499,-0.23058 2.705919,1.60032 -0.314935,0.8207 0.627907,2.12184 2.293674,3.16531 1.555633,0.97448 2.974105,1.86616 3.15216,1.98151 1.025991,0.66468 -3.152584,6.37848 -4.599416,6.28926 -0.948376,-0.0585 -5.32197,-2.0972 -9.719098,-4.53049 z M 174.06361,82 c 0,-0.825 0.66069,-2.373508 1.46819,-3.44113 1.10901,-1.466237 1.4682,-1.574158 1.4682,-0.441129 0,0.825 -0.66069,2.373508 -1.4682,3.441129 -1.109,1.466238 -1.46819,1.574159 -1.46819,0.44113 z m -5.37652,-7.75 c -1.0019,-4.894655 -2.84801,-6.519514 -6.03191,-5.308998 C 161.12322,69.523451 158.8116,70 157.51823,70 c -1.29336,0 -2.50391,0.457026 -2.6901,1.015612 -0.19938,0.598125 -1.26131,0.369281 -2.58333,-0.556704 -2.4892,-1.743499 -3.07359,-6.560446 -0.9948,-8.19975 1.77866,-1.402621 17.3036,-2.379377 20.21643,-1.271922 C 174.57355,62.168563 177,66.840399 177,71.64147 c 0,3.440934 -0.11156,3.588217 -1.39179,1.837406 -1.18252,-1.61719 -1.6336,-1.702697 -3,-0.568684 C 171.7237,73.644275 171,74.864789 171,75.622445 171,78.098182 169.26392,77.06802 168.68709,74.25 Z"
       id="path1298"
       inkscape:connector-curvature="0" />
  </g>
</svg>
